<svg width="32" height="32" viewBox="0 0 32 32" fill="none" xmlns="http://www.w3.org/2000/svg">
<path d="M24.7866 7.85332C23.1466 7.09332 21.4 6.53332 19.56 6.21332C19.3333 6.61332 19.0666 7.15998 18.8933 7.59998C16.9466 7.30665 15.0133 7.30665 13.1067 7.59998C12.92 7.15998 12.6533 6.61332 12.4267 6.21332C10.5867 6.53332 8.83999 7.09332 7.19999 7.85332C3.89332 12.84 2.99999 17.7067 3.43999 22.4934C5.63999 24.1334 7.75999 25.12 9.85332 25.7734C10.3733 25.0667 10.8267 24.3067 11.2267 23.52C10.4667 23.24 9.74666 22.88 9.06666 22.4667C9.25332 22.3334 9.42666 22.1867 9.59999 22.0534C13.7733 24 18.2933 24 22.4133 22.0534C22.5866 22.2 22.76 22.3334 22.9466 22.4667C22.2666 22.88 21.5333 23.2267 20.7866 23.52C21.1866 24.3067 21.64 25.0667 22.16 25.7734C24.2533 25.12 26.3866 24.1334 28.5733 22.4934C29.0933 16.9334 27.68 12.12 24.8133 7.85332H24.7866ZM11.7867 19.56C10.5333 19.56 9.50666 18.4 9.50666 16.9734C9.50666 15.5467 10.5067 14.3867 11.7867 14.3867C13.0667 14.3867 14.08 15.5467 14.0666 16.9734C14.0666 18.3867 13.0667 19.56 11.7867 19.56ZM20.2 19.56C18.9466 19.56 17.92 18.4 17.92 16.9734C17.92 15.5467 18.92 14.3867 20.2 14.3867C21.48 14.3867 22.4933 15.5467 22.48 16.9734C22.48 18.3867 21.48 19.56 20.2 19.56Z" fill="#575CCA"/>
</svg>
