<svg width="32" height="32" viewBox="0 0 32 32" fill="none" xmlns="http://www.w3.org/2000/svg">
<path fill-rule="evenodd" clip-rule="evenodd" d="M19.0345 0.220688C22.8292 0.711126 26.0475 2.32952 28.6896 5.07586C29.4208 5.93037 29.3289 6.68436 28.4138 7.33793C26.7436 8.10273 25.0516 8.80154 23.3379 9.43448C21.8871 10.0033 20.6916 10.9045 19.7517 12.1379C19.0744 13.5577 18.9641 15.029 19.4207 16.5517C19.7343 17.5101 20.1389 18.4297 20.6345 19.3103C21.5192 20.7857 22.5123 22.1833 23.6138 23.5034C24.896 24.9516 26.2018 26.3861 27.531 27.8069C25.2575 30.1207 22.4988 31.5 19.2551 31.9448C12.3302 32.1885 7.052 29.3747 3.42066 23.5034C1.3867 19.5627 0.945321 15.4431 2.09653 11.1448C4.18096 5.25396 8.28213 1.64932 14.4 0.331032C16.1655 0.0551716 17.4345 -0.16552 19.0345 0.220688Z" fill="white" fill-opacity="0.85"/>
<path fill-rule="evenodd" clip-rule="evenodd" d="M27.4207 13.0759C28.9389 12.9242 29.9872 13.5496 30.5655 14.9517C30.6675 17.314 29.5456 18.3254 27.2 17.9862C25.3223 16.8227 25.0648 15.3882 26.4276 13.6828C26.7363 13.4285 27.0673 13.2262 27.4207 13.0759Z" fill="white" fill-opacity="0.85"/>
</svg>
