<svg width="28" height="28" viewBox="0 0 28 28" fill="none" xmlns="http://www.w3.org/2000/svg">
<g clip-path="url(#clip0_69_456)">
<path fill-rule="evenodd" clip-rule="evenodd" d="M11.1838 17.6205V9.76397C13.9729 11.0764 16.133 12.3442 18.6878 13.711C16.5807 14.8796 13.9729 16.1908 11.1838 17.6205ZM26.7274 5.85655C26.2463 5.22268 25.4263 4.72928 24.5533 4.56592C21.9874 4.07865 5.97938 4.07727 3.41481 4.56592C2.71475 4.69716 2.09137 5.01438 1.55587 5.50723C-0.700508 7.60149 0.00653265 18.8323 0.550406 20.6516C0.77911 21.439 1.07477 22.0069 1.44711 22.3797C1.92683 22.8725 2.58365 23.2119 3.3381 23.3641C5.45084 23.8011 16.3353 24.0454 24.5087 23.4297C25.2617 23.2985 25.9283 22.9482 26.4541 22.4344C28.5403 20.3485 28.3981 8.48694 26.7274 5.85655Z" fill="#FF1D36"/>
</g>
<defs>
<clipPath id="clip0_69_456">
<rect width="28" height="28" fill="white"/>
</clipPath>
</defs>
</svg>
